<svg fill="#000" width="800" height="800" viewBox="0 -3 24 24" xmlns="http://www.w3.org/2000/svg"><path d="M20 1H4A3 3 0 001 4V14a3 3 0 003 3H20a3 3 0 003-3V4A3 3 0 0020 1Zm1 13a1 1 0 01-1 1H4a1 1 0 01-1-1V4A1 1 0 014 3H20a1 1 0 011 1Zm-2-2a1 1 0 01-1 1H6a1 1 0 010-2H18A1 1 0 0119 12Zm0-6a1 1 0 01-1 1H16a1 1 0 010-2h2A1 1 0 0119 6ZM10 6a1 1 0 011-1h2a1 1 0 010 2H11A1 1 0 0110 6ZM5 6A1 1 0 016 5H8A1 1 0 018 7H6A1 1 0 015 6ZM19 9a1 1 0 01-1 1H16a1 1 0 010-2h2A1 1 0 0119 9ZM10 9a1 1 0 011-1h2a1 1 0 010 2H11A1 1 0 0110 9ZM5 9A1 1 0 016 8H8a1 1 0 010 2H6A1 1 0 015 9Z" fill="#fff"/></svg>
